<?xml version="1.0" encoding="UTF-8"?>
<svg xmlns="http://www.w3.org/2000/svg" width="1983" height="793" viewBox="0 0 1983 793" role="img" aria-label="H4 Systems logo vector transparent">
  <title>H4 Systems Logo - True Vector Transparent</title>
  <desc>Vector-traced logo artwork with transparent background. No embedded raster image is used.</desc>
  <g fill-rule="evenodd" clip-rule="evenodd">
    <path d="M 344.0 242.0 L 336.0 275.0 L 329.0 288.0 L 331.0 289.0 L 329.0 301.0 L 325.0 301.0 L 323.0 304.0 L 327.0 304.0 L 328.0 308.0 L 320.0 337.0 L 337.0 338.0 L 340.0 340.0 L 333.0 369.0 L 312.0 370.0 L 311.0 366.0 L 308.0 368.0 L 302.0 367.0 L 301.0 364.0 L 297.0 362.0 L 294.0 366.0 L 299.0 365.0 L 300.0 368.0 L 293.0 369.0 L 311.0 370.0 L 304.0 403.0 L 302.0 406.0 L 300.0 406.0 L 298.0 413.0 L 300.0 416.0 L 297.0 428.0 L 286.0 428.0 L 280.0 423.0 L 278.0 423.0 L 276.0 426.0 L 273.0 423.0 L 274.0 417.0 L 271.0 430.0 L 296.0 431.0 L 279.0 496.0 L 331.0 496.0 L 357.0 393.0 L 359.0 391.0 L 453.0 391.0 L 454.0 396.0 L 428.0 496.0 L 479.0 497.0 L 482.0 492.0 L 497.0 434.0 L 455.0 466.0 L 452.0 467.0 L 451.0 465.0 L 505.0 407.0 L 550.0 242.0 L 495.0 243.0 L 473.0 322.0 L 467.0 338.0 L 373.0 338.0 L 372.0 334.0 L 396.0 242.0 Z
M 1518.0 294.0 L 1506.0 286.0 L 1427.0 286.0 L 1412.0 292.0 L 1401.0 302.0 L 1394.0 315.0 L 1369.0 383.0 L 1368.0 394.0 L 1371.0 402.0 L 1378.0 408.0 L 1385.0 410.0 L 1460.0 410.0 L 1478.0 403.0 L 1487.0 395.0 L 1494.0 384.0 L 1520.0 313.0 L 1521.0 302.0 Z
M 1770.0 286.0 L 1724.0 410.0 L 1750.0 410.0 L 1766.0 369.0 L 1799.0 369.0 L 1822.0 410.0 L 1851.0 410.0 L 1831.0 369.0 L 1849.0 363.0 L 1858.0 356.0 L 1864.0 348.0 L 1878.0 312.0 L 1879.0 303.0 L 1876.0 294.0 L 1871.0 289.0 L 1864.0 286.0 Z
M 977.0 286.0 L 932.0 410.0 L 959.0 409.0 L 973.0 369.0 L 978.0 360.0 L 1041.0 360.0 L 1042.0 362.0 L 1025.0 410.0 L 1050.0 410.0 L 1095.0 286.0 L 1069.0 286.0 L 1052.0 335.0 L 1034.0 337.0 L 987.0 337.0 L 986.0 334.0 L 1003.0 286.0 Z
M 1589.0 286.0 L 1553.0 384.0 L 1553.0 397.0 L 1555.0 401.0 L 1561.0 407.0 L 1569.0 410.0 L 1643.0 410.0 L 1656.0 406.0 L 1671.0 393.0 L 1676.0 385.0 L 1712.0 286.0 L 1685.0 286.0 L 1653.0 376.0 L 1647.0 383.0 L 1640.0 386.0 L 1588.0 386.0 L 1583.0 383.0 L 1582.0 376.0 L 1615.0 286.0 Z
M 1356.0 286.0 L 1261.0 286.0 L 1244.0 293.0 L 1238.0 298.0 L 1230.0 309.0 L 1194.0 410.0 L 1220.0 409.0 L 1234.0 370.0 L 1238.0 363.0 L 1315.0 363.0 L 1323.0 340.0 L 1247.0 340.0 L 1246.0 337.0 L 1253.0 318.0 L 1260.0 311.0 L 1266.0 309.0 L 1348.0 309.0 Z
M 1490.0 312.0 L 1491.0 320.0 L 1470.0 377.0 L 1463.0 384.0 L 1458.0 386.0 L 1404.0 386.0 L 1399.0 383.0 L 1398.0 376.0 L 1419.0 318.0 L 1425.0 312.0 L 1433.0 309.0 L 1483.0 309.0 Z
M 1775.0 346.0 L 1775.0 342.0 L 1788.0 310.0 L 1843.0 309.0 L 1846.0 310.0 L 1850.0 315.0 L 1842.0 339.0 L 1833.0 346.0 Z
M 835.0 242.0 L 835.0 507.0 L 838.0 508.0 L 838.0 242.0 Z
M 304.0 405.0 L 328.0 406.0 L 323.0 428.0 L 320.0 432.0 L 298.0 431.0 L 299.0 421.0 Z
M 335.0 280.0 L 359.0 281.0 L 352.0 305.0 L 329.0 304.0 Z
M 1624.0 454.0 L 1623.0 458.0 L 1618.0 456.0 L 1612.0 460.0 L 1612.0 465.0 L 1609.0 466.0 L 1606.0 470.0 L 1607.0 475.0 L 1603.0 481.0 L 1617.0 460.0 L 1619.0 462.0 L 1622.0 459.0 L 1623.0 464.0 Z
M 1782.0 475.0 L 1784.0 472.0 L 1872.0 472.0 L 1782.0 472.0 Z
M 1588.0 452.0 L 1590.0 457.0 L 1589.0 460.0 L 1585.0 459.0 L 1581.0 461.0 L 1580.0 458.0 L 1581.0 457.0 L 1580.0 464.0 L 1584.0 464.0 L 1583.0 479.0 L 1584.0 461.0 L 1586.0 460.0 L 1596.0 481.0 L 1597.0 479.0 L 1594.0 477.0 L 1592.0 471.0 L 1595.0 470.0 L 1598.0 475.0 L 1594.0 467.0 L 1592.0 469.0 L 1589.0 465.0 L 1590.0 462.0 L 1593.0 464.0 Z
M 1069.0 457.0 L 1070.0 463.0 L 1067.0 466.0 L 1069.0 469.0 L 1082.0 473.0 L 1088.0 471.0 L 1089.0 473.0 L 1087.0 474.0 L 1090.0 474.0 L 1093.0 477.0 L 1092.0 475.0 L 1096.0 473.0 L 1098.0 476.0 L 1095.0 472.0 L 1083.0 469.0 L 1085.0 471.0 L 1084.0 473.0 L 1069.0 469.0 L 1069.0 465.0 L 1073.0 467.0 L 1070.0 460.0 L 1071.0 457.0 L 1075.0 454.0 Z
M 1711.0 473.0 L 1717.0 474.0 L 1721.0 478.0 L 1723.0 474.0 L 1725.0 475.0 L 1724.0 473.0 L 1715.0 470.0 L 1714.0 473.0 Z
M 272.0 427.0 L 281.0 426.0 L 282.0 428.0 L 274.0 430.0 Z
M 1270.0 464.0 L 1274.0 470.0 L 1283.0 472.0 L 1280.0 471.0 L 1281.0 469.0 L 1286.0 469.0 L 1278.0 468.0 L 1274.0 464.0 L 1274.0 467.0 L 1272.0 468.0 Z
M 661.0 277.0 L 650.0 288.0 L 654.0 284.0 L 660.0 284.0 L 662.0 286.0 L 662.0 281.0 L 660.0 279.0 Z
M 621.0 317.0 L 596.0 341.0 L 601.0 336.0 L 603.0 337.0 L 610.0 333.0 L 607.0 330.0 L 618.0 319.0 L 621.0 320.0 Z
M 1697.0 485.0 L 1702.0 490.0 L 1701.0 492.0 L 1714.0 489.0 L 1703.0 489.0 Z
M 647.0 291.0 L 639.0 299.0 L 644.0 297.0 L 646.0 299.0 L 650.0 297.0 L 646.0 293.0 Z
M 187.0 370.0 L 189.0 373.0 L 186.0 374.0 L 186.0 376.0 L 192.0 379.0 L 190.0 377.0 L 191.0 375.0 L 193.0 376.0 L 191.0 371.0 Z
M 644.0 488.0 L 643.0 495.0 L 658.0 495.0 L 650.0 495.0 L 650.0 492.0 L 646.0 493.0 Z
M 1093.0 457.0 L 1093.0 452.0 L 1088.0 450.0 L 1086.0 453.0 L 1078.0 453.0 L 1087.0 453.0 Z
M 1290.0 471.0 L 1292.0 472.0 L 1291.0 474.0 L 1295.0 476.0 L 1296.0 473.0 L 1300.0 474.0 L 1297.0 471.0 Z
M 637.0 301.0 L 627.0 311.0 L 632.0 309.0 L 635.0 310.0 L 634.0 304.0 Z
M 89.0 413.0 L 88.0 421.0 L 98.0 420.0 L 99.0 418.0 L 97.0 420.0 L 93.0 420.0 L 93.0 417.0 L 90.0 417.0 Z
M 1274.0 485.0 L 1275.0 488.0 L 1282.0 490.0 L 1283.0 492.0 L 1287.0 492.0 L 1286.0 490.0 L 1290.0 489.0 L 1279.0 489.0 Z
M 1197.0 458.0 L 1191.0 467.0 L 1187.0 469.0 L 1188.0 471.0 L 1185.0 475.0 L 1185.0 478.0 L 1181.0 480.0 L 1184.0 482.0 L 1184.0 491.0 L 1182.0 492.0 L 1184.0 492.0 L 1185.0 475.0 Z
M 684.0 254.0 L 679.0 260.0 L 686.0 259.0 Z
M 246.0 351.0 L 253.0 350.0 L 253.0 347.0 L 247.0 347.0 Z
M 1386.0 464.0 L 1386.0 469.0 L 1388.0 467.0 L 1389.0 472.0 L 1387.0 475.0 L 1385.0 472.0 L 1385.0 480.0 L 1388.0 480.0 L 1389.0 467.0 L 1387.0 467.0 Z
M 651.0 346.0 L 646.0 347.0 L 645.0 353.0 Z
M 199.0 449.0 L 219.0 450.0 L 208.0 450.0 L 206.0 448.0 Z
M 719.0 277.0 L 722.0 276.0 L 723.0 278.0 L 728.0 273.0 L 726.0 275.0 L 721.0 273.0 Z
M 548.0 387.0 L 536.0 399.0 L 539.0 396.0 L 544.0 396.0 L 543.0 392.0 Z
M 238.0 250.0 L 241.0 252.0 L 248.0 252.0 L 248.0 250.0 Z" fill="#F4F7F9"/>
    <path d="M 758.0 244.0 L 736.0 244.0 L 735.0 246.0 L 729.0 244.0 L 694.0 244.0 L 685.0 253.0 L 685.0 259.0 L 678.0 260.0 L 678.0 262.0 L 671.0 267.0 L 669.0 271.0 L 667.0 270.0 L 667.0 273.0 L 665.0 272.0 L 559.0 377.0 L 557.0 377.0 L 530.0 403.0 L 517.0 455.0 L 650.0 454.0 L 651.0 460.0 L 642.0 497.0 L 693.0 497.0 L 704.0 456.0 L 738.0 455.0 L 750.0 406.0 L 749.0 405.0 L 718.0 405.0 L 717.0 401.0 L 738.0 320.0 L 748.0 274.0 L 679.0 340.0 L 667.0 390.0 L 668.0 394.0 L 666.0 395.0 L 664.0 403.0 L 665.0 405.0 L 663.0 407.0 L 596.0 406.0 L 594.0 403.0 L 754.0 250.0 Z
M 306.0 275.0 L 298.0 304.0 L 326.0 305.0 L 331.0 284.0 L 335.0 275.0 L 311.0 277.0 Z
M 1581.0 449.0 L 1580.0 457.0 L 1583.0 462.0 L 1579.0 462.0 L 1576.0 493.0 L 1582.0 493.0 L 1584.0 478.0 L 1583.0 470.0 L 1585.0 469.0 L 1586.0 463.0 L 1588.0 464.0 L 1594.0 479.0 L 1598.0 479.0 L 1595.0 481.0 L 1596.0 484.0 L 1602.0 484.0 L 1610.0 472.0 L 1607.0 471.0 L 1608.0 466.0 L 1613.0 466.0 L 1611.0 470.0 L 1617.0 463.0 L 1618.0 466.0 L 1614.0 493.0 L 1620.0 493.0 L 1625.0 449.0 L 1618.0 450.0 L 1612.0 459.0 L 1618.0 455.0 L 1622.0 459.0 L 1615.0 461.0 L 1615.0 464.0 L 1611.0 461.0 L 1601.0 478.0 L 1597.0 473.0 L 1588.0 450.0 Z
M 1075.0 449.0 L 1069.0 452.0 L 1066.0 456.0 L 1065.0 463.0 L 1067.0 468.0 L 1073.0 472.0 L 1090.0 475.0 L 1094.0 479.0 L 1094.0 483.0 L 1092.0 487.0 L 1085.0 488.0 L 1083.0 490.0 L 1075.0 488.0 L 1070.0 484.0 L 1069.0 481.0 L 1065.0 481.0 L 1065.0 487.0 L 1073.0 493.0 L 1091.0 493.0 L 1099.0 486.0 L 1100.0 479.0 L 1098.0 474.0 L 1093.0 470.0 L 1074.0 466.0 L 1071.0 463.0 L 1071.0 459.0 L 1076.0 454.0 L 1088.0 454.0 L 1093.0 458.0 L 1093.0 460.0 L 1099.0 460.0 L 1098.0 456.0 L 1090.0 449.0 Z
M 1700.0 450.0 L 1693.0 458.0 L 1693.0 464.0 L 1695.0 468.0 L 1699.0 471.0 L 1719.0 476.0 L 1721.0 478.0 L 1721.0 484.0 L 1716.0 488.0 L 1703.0 488.0 L 1697.0 483.0 L 1697.0 481.0 L 1692.0 481.0 L 1693.0 488.0 L 1696.0 491.0 L 1704.0 494.0 L 1718.0 493.0 L 1725.0 488.0 L 1726.0 486.0 L 1724.0 484.0 L 1727.0 484.0 L 1727.0 477.0 L 1725.0 473.0 L 1717.0 469.0 L 1702.0 466.0 L 1699.0 463.0 L 1699.0 458.0 L 1704.0 454.0 L 1719.0 454.0 L 1721.0 456.0 L 1721.0 460.0 L 1725.0 460.0 L 1725.0 454.0 L 1717.0 449.0 Z
M 241.0 462.0 L 235.0 487.0 L 260.0 487.0 L 264.0 472.0 L 263.0 469.0 L 265.0 468.0 L 266.0 462.0 Z
M 1477.0 449.0 L 1473.0 493.0 L 1505.0 493.0 L 1504.0 488.0 L 1500.0 489.0 L 1480.0 487.0 L 1480.0 475.0 L 1482.0 473.0 L 1504.0 472.0 L 1504.0 468.0 L 1482.0 468.0 L 1480.0 463.0 L 1482.0 462.0 L 1483.0 454.0 L 1508.0 454.0 L 1508.0 449.0 Z
M 249.0 338.0 L 243.0 363.0 L 266.0 363.0 L 273.0 339.0 Z
M 277.0 405.0 L 277.0 410.0 L 275.0 411.0 L 274.0 415.0 L 275.0 418.0 L 273.0 419.0 L 274.0 422.0 L 272.0 423.0 L 274.0 423.0 L 276.0 426.0 L 271.0 427.0 L 274.0 429.0 L 271.0 431.0 L 295.0 431.0 L 292.0 429.0 L 296.0 428.0 L 300.0 411.0 L 299.0 408.0 L 302.0 405.0 Z
M 1278.0 449.0 L 1269.0 456.0 L 1270.0 467.0 L 1273.0 470.0 L 1272.0 468.0 L 1276.0 465.0 L 1281.0 469.0 L 1275.0 471.0 L 1295.0 476.0 L 1297.0 479.0 L 1297.0 484.0 L 1292.0 488.0 L 1279.0 488.0 L 1274.0 484.0 L 1273.0 481.0 L 1268.0 481.0 L 1268.0 486.0 L 1276.0 493.0 L 1294.0 493.0 L 1298.0 491.0 L 1303.0 485.0 L 1302.0 475.0 L 1298.0 471.0 L 1298.0 474.0 L 1294.0 474.0 L 1290.0 471.0 L 1291.0 469.0 L 1296.0 470.0 L 1277.0 466.0 L 1274.0 460.0 L 1280.0 454.0 L 1290.0 454.0 L 1291.0 452.0 L 1297.0 458.0 L 1297.0 460.0 L 1302.0 460.0 L 1302.0 456.0 L 1298.0 451.0 L 1293.0 449.0 Z
M 235.0 398.0 L 229.0 422.0 L 253.0 422.0 L 259.0 398.0 Z
M 205.0 426.0 L 198.0 450.0 L 199.0 448.0 L 204.0 449.0 L 205.0 447.0 L 208.0 449.0 L 223.0 450.0 L 229.0 426.0 Z
M 242.0 281.0 L 237.0 304.0 L 259.0 304.0 L 265.0 281.0 Z
M 147.0 428.0 L 145.0 436.0 L 146.0 439.0 L 144.0 440.0 L 145.0 444.0 L 143.0 445.0 L 142.0 449.0 L 164.0 450.0 L 170.0 427.0 L 166.0 427.0 L 164.0 429.0 L 162.0 427.0 Z
M 186.0 370.0 L 181.0 392.0 L 203.0 392.0 L 209.0 370.0 L 189.0 370.0 L 188.0 372.0 Z
M 1407.0 449.0 L 1371.0 449.0 L 1371.0 454.0 L 1383.0 453.0 L 1386.0 455.0 L 1382.0 493.0 L 1388.0 493.0 L 1391.0 456.0 L 1393.0 454.0 L 1407.0 454.0 Z
M 1164.0 449.0 L 1180.0 475.0 L 1179.0 492.0 L 1185.0 493.0 L 1183.0 479.0 L 1186.0 479.0 L 1187.0 473.0 L 1203.0 449.0 L 1198.0 449.0 L 1184.0 468.0 L 1178.0 464.0 L 1170.0 449.0 Z
M 170.0 473.0 L 165.0 492.0 L 183.0 493.0 L 188.0 473.0 Z
M 132.0 377.0 L 133.0 379.0 L 131.0 380.0 L 128.0 395.0 L 145.0 395.0 L 150.0 378.0 Z
M 284.0 242.0 L 282.0 248.0 L 283.0 251.0 L 281.0 252.0 L 282.0 256.0 L 280.0 258.0 L 282.0 260.0 L 298.0 260.0 L 302.0 242.0 Z
M 105.0 473.0 L 101.0 491.0 L 117.0 491.0 L 121.0 473.0 Z
M 296.0 352.0 L 292.0 369.0 L 300.0 368.0 L 300.0 364.0 L 304.0 367.0 L 304.0 369.0 L 301.0 370.0 L 309.0 370.0 L 306.0 369.0 L 307.0 367.0 L 312.0 368.0 L 315.0 352.0 Z
M 1023.0 472.0 L 1020.0 474.0 L 934.0 473.0 L 932.0 476.0 L 1023.0 476.0 Z
M 1781.0 472.0 L 1781.0 476.0 L 1872.0 476.0 L 1872.0 473.0 L 1786.0 474.0 Z
M 236.0 242.0 L 233.0 256.0 L 247.0 256.0 L 248.0 253.0 L 246.0 251.0 L 249.0 251.0 L 251.0 242.0 Z
M 198.0 317.0 L 194.0 331.0 L 208.0 331.0 L 211.0 317.0 Z
M 89.0 410.0 L 87.0 422.0 L 98.0 422.0 L 101.0 411.0 L 95.0 410.0 L 92.0 412.0 Z
M 276.0 429.0 L 282.0 427.0 L 290.0 428.0 L 289.0 431.0 L 277.0 431.0 Z
M 662.0 280.0 L 663.0 283.0 L 657.0 286.0 L 655.0 282.0 L 658.0 279.0 Z
M 1714.0 470.0 L 1720.0 470.0 L 1723.0 472.0 L 1723.0 474.0 L 1720.0 475.0 Z
M 647.0 493.0 L 649.0 492.0 L 650.0 494.0 L 655.0 494.0 L 656.0 496.0 L 648.0 497.0 Z
M 649.0 295.0 L 646.0 298.0 L 641.0 298.0 L 641.0 296.0 L 645.0 295.0 L 646.0 293.0 Z
M 189.0 372.0 L 193.0 374.0 L 190.0 378.0 L 187.0 376.0 Z
M 248.0 348.0 L 253.0 346.0 L 254.0 350.0 L 250.0 351.0 Z
M 1088.0 471.0 L 1091.0 470.0 L 1095.0 471.0 L 1096.0 473.0 L 1091.0 474.0 Z
M 1704.0 489.0 L 1711.0 488.0 L 1712.0 490.0 L 1705.0 491.0 Z
M 1697.0 486.0 L 1699.0 485.0 L 1704.0 490.0 L 1700.0 490.0 Z
M 1279.0 489.0 L 1286.0 488.0 L 1287.0 490.0 L 1280.0 491.0 Z
M 259.0 438.0 L 261.0 441.0 L 267.0 439.0 L 267.0 437.0 Z
M 610.0 333.0 L 605.0 337.0 L 603.0 336.0 L 604.0 333.0 Z
M 1087.0 450.0 L 1090.0 449.0 L 1094.0 453.0 L 1092.0 454.0 Z
M 645.0 347.0 L 648.0 346.0 L 649.0 350.0 L 646.0 351.0 Z
M 277.0 423.0 L 279.0 422.0 L 282.0 426.0 L 279.0 427.0 Z
M 325.0 300.0 L 327.0 301.0 L 326.0 305.0 L 323.0 304.0 Z
M 1385.0 474.0 L 1387.0 475.0 L 1386.0 480.0 L 1384.0 479.0 Z
M 734.0 294.0 L 738.0 293.0 L 739.0 296.0 L 737.0 297.0 Z
M 540.0 395.0 L 544.0 394.0 L 545.0 396.0 L 541.0 397.0 Z
M 708.0 286.0 L 712.0 285.0 L 713.0 287.0 L 709.0 288.0 Z
M 719.0 275.0 L 723.0 274.0 L 724.0 276.0 L 720.0 277.0 Z
M 216.0 443.0 L 219.0 442.0 L 220.0 445.0 L 218.0 446.0 Z
M 295.0 363.0 L 297.0 362.0 L 299.0 365.0 L 297.0 366.0 Z
M 92.0 420.0 L 95.0 419.0 L 96.0 421.0 L 93.0 422.0 Z
M 87.0 419.0 L 90.0 418.0 L 91.0 420.0 L 88.0 421.0 Z
M 242.0 296.0 L 245.0 295.0 L 246.0 297.0 L 243.0 298.0 Z
M 695.0 298.0 L 698.0 297.0 L 699.0 299.0 L 696.0 300.0 Z
M 240.0 251.0 L 243.0 250.0 L 244.0 252.0 L 241.0 253.0 Z
M 107.0 479.0 L 109.0 478.0 L 110.0 480.0 L 108.0 481.0 Z
M 1589.0 461.0 L 1591.0 460.0 L 1592.0 462.0 L 1590.0 463.0 Z
M 1586.0 460.0 L 1588.0 459.0 L 1589.0 461.0 L 1587.0 462.0 Z
M 1180.0 480.0 L 1182.0 479.0 L 1183.0 481.0 L 1181.0 482.0 Z
M 1070.0 465.0 L 1072.0 464.0 L 1073.0 466.0 L 1071.0 467.0 Z
M 281.0 406.0 L 283.0 405.0 L 284.0 407.0 L 282.0 408.0 Z
M 190.0 378.0 L 192.0 377.0 L 193.0 379.0 L 191.0 380.0 Z
M 668.0 328.0 L 670.0 327.0 L 671.0 329.0 L 669.0 330.0 Z
M 627.0 309.0 L 629.0 308.0 L 630.0 310.0 L 628.0 311.0 Z
M 631.0 308.0 L 633.0 307.0 L 634.0 309.0 L 632.0 310.0 Z
M 740.0 297.0 L 742.0 296.0 L 743.0 298.0 L 741.0 299.0 Z
M 237.0 250.0 L 239.0 249.0 L 240.0 251.0 L 238.0 252.0 Z" fill="#6FAFA6"/>
  </g>
</svg>
